# xmcd
#
# Track frame offsets:
#	187
#	16025
#	33637
#	53485
#	74137
#	91617
#	94550
#	112162
#	132675
#	152287
#	169237
#
# Disc length: 2539 seconds
#
# Revision: 1
# Processed by: cddbd v1.5.1PL0 Copyright (c) Steve Scherf et al.
# Submitted via: CDex 1.50Beta5
#
DISCID=8909e90b
DTITLE=安達祐実 - Viva!AMERICA
DYEAR=1996
DGENRE=
TTITLE0=Star-Spangled Banner,The
TTITLE1=ちょっと来ちゃったアメリカよ!
TTITLE2=VANILLAのリップ
TTITLE3=魔法を信じるかい?
TTITLE4=空に手をかざしたら
TTITLE5=success
TTITLE6=サクセス
TTITLE7=さよならコスモス
TTITLE8=雨の日も嵐の日もハリケーンの日も
TTITLE9=恋のマラソン・ボーイ
TTITLE10=ホームタウン
EXTD=
EXTT0=
EXTT1=
EXTT2=
EXTT3=
EXTT4=
EXTT5=
EXTT6=
EXTT7=
EXTT8=
EXTT9=
EXTT10=
PLAYORDER=
